<?xml version="1.0" encoding="UTF-8"?>
<svg id="Laag_1" data-name="Laag 1" xmlns="http://www.w3.org/2000/svg" viewBox="0 0 561.25 561.36">
  <defs>
    <style>
      .cls-1 {
        fill: #c69f4e;
      }

      .cls-2 {
        fill: #caa151;
      }

      .cls-3 {
        fill: #a67d56;
      }

      .cls-4 {
        fill: #c79f59;
      }

      .cls-5 {
        fill: #6b6545;
      }

      .cls-6 {
        fill: #d09c46;
      }

      .cls-7 {
        fill: #cca755;
      }

      .cls-8 {
        fill: #d1aa55;
      }

      .cls-9 {
        fill: #bb9a56;
      }

      .cls-10 {
        fill: #5e5442;
      }

      .cls-11 {
        fill: #abaf64;
      }

      .cls-12 {
        fill: #cea555;
      }

      .cls-13 {
        fill: #645e4a;
      }

      .cls-14 {
        fill: #caa455;
      }

      .cls-15 {
        fill: #79724f;
      }

      .cls-16 {
        fill: #c09f58;
      }

      .cls-17 {
        fill: #7e774d;
      }

      .cls-18 {
        fill: #cca452;
      }

      .cls-19 {
        fill: #d0a551;
      }

      .cls-20 {
        fill: #c79c52;
      }

      .cls-21 {
        fill: #ce9f4e;
      }

      .cls-22 {
        fill: #c9a153;
      }

      .cls-23 {
        fill: #6d664a;
      }

      .cls-24 {
        fill: #cba354;
      }

      .cls-25 {
        fill: #d1a957;
      }

      .cls-26 {
        fill: #b1a052;
      }

      .cls-27 {
        fill: #d2aa55;
      }

      .cls-28 {
        fill: #7b794e;
      }

      .cls-29 {
        fill: #b4a055;
      }

      .cls-30 {
        fill: #caa04f;
      }

      .cls-31 {
        fill: #bc9a4e;
      }

      .cls-32 {
        fill: #c79e52;
      }

      .cls-33 {
        fill: #d2aa56;
      }

      .cls-34 {
        fill: #cda555;
      }

      .cls-35 {
        fill: #a7a559;
      }

      .cls-36 {
        fill: #705840;
      }

      .cls-37 {
        fill: #c09f53;
      }

      .cls-38 {
        fill: #c79e4f;
      }

      .cls-39 {
        fill: #bd9d54;
      }

      .cls-40 {
        fill: #554b43;
      }

      .cls-41 {
        fill: #8c7649;
      }

      .cls-42 {
        fill: #80785a;
      }

      .cls-43 {
        fill: #7f6044;
      }

      .cls-44 {
        fill: #c09f52;
      }

      .cls-45 {
        fill: #ce9c4e;
      }

      .cls-46 {
        fill: #675b41;
      }

      .cls-47 {
        fill: #6d674e;
      }

      .cls-48 {
        fill: #b09651;
      }

      .cls-49 {
        fill: #c99b4b;
      }

      .cls-50 {
        fill: #a67b50;
      }

      .cls-51 {
        fill: #c7a054;
      }

      .cls-52 {
        fill: #ba9050;
      }

      .cls-53 {
        fill: #d1aa56;
      }

      .cls-54 {
        fill: #5c5e41;
      }

      .cls-55 {
        fill: #9a7f44;
      }

      .cls-56 {
        fill: #6a6248;
      }

      .cls-57 {
        fill: #212f45;
      }

      .cls-58 {
        fill: #727453;
      }

      .cls-59 {
        fill: #77704b;
      }

      .cls-60 {
        fill: #997d4e;
      }

      .cls-61 {
        fill: #d2ab58;
      }

      .cls-62 {
        fill: #60624d;
      }

      .cls-63 {
        fill: #4a4a40;
      }

      .cls-64 {
        fill: #5e5b49;
      }

      .cls-65 {
        fill: #bf9a4c;
      }

      .cls-66 {
        fill: #b79656;
      }

      .cls-67 {
        fill: #d0a04b;
      }

      .cls-68 {
        fill: #927f4d;
      }

      .cls-69 {
        fill: #595c4d;
      }

      .cls-70 {
        fill: #af9150;
      }

      .cls-71 {
        fill: #1e2c3e;
      }

      .cls-72 {
        fill: #5a4e3d;
      }

      .cls-73 {
        fill: #9a814d;
      }

      .cls-74 {
        fill: #8b8152;
      }

      .cls-75 {
        fill: #5b5442;
      }

      .cls-76 {
        fill: #c29249;
      }

      .cls-77 {
        fill: #9f834c;
      }

      .cls-78 {
        fill: #c4a051;
      }

      .cls-79 {
        fill: #c7994f;
      }

      .cls-80 {
        fill: #b79e51;
      }

      .cls-81 {
        fill: #56543f;
      }

      .cls-82 {
        fill: #cfa753;
      }

      .cls-83 {
        fill: #989357;
      }

      .cls-84 {
        fill: #817959;
      }

      .cls-85 {
        fill: #b59952;
      }

      .cls-86 {
        fill: #c7964f;
      }

      .cls-87 {
        fill: #918351;
      }

      .cls-88 {
        fill: #b59b55;
      }

      .cls-89 {
        fill: #997f47;
      }

      .cls-90 {
        fill: #d2a855;
      }

      .cls-91 {
        fill: #9e8b51;
      }

      .cls-92 {
        fill: #877f58;
      }

      .cls-93 {
        fill: #ca914b;
      }

      .cls-94 {
        fill: #6c6245;
      }

      .cls-95 {
        fill: #c49b54;
      }

      .cls-96 {
        fill: #3c3a3b;
      }

      .cls-97 {
        fill: #cfa859;
      }

      .cls-98 {
        fill: #a4a25a;
      }

      .cls-99 {
        fill: #635948;
      }

      .cls-100 {
        fill: #c6a254;
      }

      .cls-101 {
        fill: #cc9c4f;
      }

      .cls-102 {
        fill: #c1a056;
      }

      .cls-103 {
        fill: #8b8054;
      }

      .cls-104 {
        fill: #716244;
      }

      .cls-105 {
        fill: #655a45;
      }

      .cls-106 {
        fill: #6c5e42;
      }

      .cls-107 {
        fill: #766d4b;
      }
    </style>
  </defs>
  <path class="cls-7" d="M281.16,561.35c-53.49-.44-103.01-14.79-148.44-42.95-39.39-24.41-71.31-56.34-94.87-96.36-16.32-27.73-27.43-57.47-33.33-89.12-5.44-29.19-5.87-58.5-1.82-87.88,5.54-40.25,18.81-77.81,40.63-112.08C84.26,68.7,141.65,26.73,215.63,7.93,243.31,.9,271.54-1.38,300.02,.78c69.8,5.3,129.22,33.36,178.44,82.8,40.94,41.13,66.56,90.61,77.66,147.53,6.18,31.72,6.83,63.64,1.69,95.55-10.46,65.02-40.76,119.41-89.33,163.55-33.51,30.45-72.83,50.5-116.55,61.92-23.17,6.05-46.73,9.46-70.76,9.2Z"/>
  <path class="cls-71" d="M342.41,540h34.73c0,1.67-1.2,1.59-2,1.88-13.84,5.1-28.01,9.02-42.53,11.62-1.6,.29-3.25,.35-4.88,.35-30.54,.04-61.09,.04-91.63,.09-5.24,0-10.26-1.21-15.31-2.34-10.38-2.34-20.6-5.23-30.58-8.94-1.52-.56-3.11-.96-5.08-2.5h36.97c-1.26-1.08-2.6-.82-3.9-.83-10.09-.12-20.18-.3-30.27-.24-5.55,.03-10.75-.97-15.85-3.22-49.55-21.86-90.37-54.41-121.36-98.99-22.36-32.16-36.62-67.7-43.79-106.11-4.68-25.09-5.28-50.36-2.63-75.73,4.43-42.42,17.51-82.04,39.99-118.24C79.32,80.42,128.01,40.57,190.8,18.34c21.3-7.54,43.19-12.33,65.72-14.26,73.03-6.23,138.29,13.96,195.3,59.37,54.78,43.63,89.03,100.5,101.68,169.43,14.42,78.62-2.78,150.43-50.11,214.88-22.35,30.43-50.24,54.74-82.97,73.48-10.4,5.96-21.16,11.29-32.29,15.8-2.3,.93-4.61,1.51-7.11,1.67-6.54,.42-13.08,.39-19.63,.45-6.26,.06-12.53,.01-18.8,.01-.06,.28-.13,.55-.19,.83Z"/>
  <path class="cls-40" d="M251.69,556.63c19.87,.03,39.71-.2,59.55,.02-19.85,2.72-39.72,2.82-59.55-.02Z"/>
  <path class="cls-33" d="M146.41,259.95c1.85,.52,2.54,1.41,3.34,2.09,12.58,10.8,27.3,16.13,43.7,17.17,12,.76,23.67-.66,34.8-5.47,4.02-1.74,7.95-3.75,11.14-6.74,2.02-1.89,4.12-2.29,6.66-2.29,18.13,.04,36.26,0,54.39,0,5.86,0,11.72-.01,17.59-.03,1.66,0,3.13,.17,4.51,1.39,9.18,8.05,20.26,11.64,32.12,12.85,14.33,1.47,28.26-.41,41.61-6.15,6.71-2.89,12.74-6.75,18.23-11.53,.55-.48,.92-1.31,2.19-1.15-2.63,4.5-6.16,8.01-9.92,11.3-10.61,9.29-23.25,13.95-37.02,15.88-7.57,1.06-15.2,1.39-22.84,1.39-44.3,.03-88.61,.05-132.91-.02-11.88-.02-23.7-.75-35.11-4.61-10.25-3.47-19.23-8.95-26.74-16.77-1.98-2.06-3.81-4.23-5.74-7.31Z"/>
  <path class="cls-27" d="M205.65,182.15c1.01-.05,1.52,.65,2.1,1.13,13.98,11.57,42.11,9.48,54.73-8.52,4.66-6.65,7.83-14.02,11.02-21.38,1.05-2.43,1.96-4.38,5.15-3.94,1.7,.23,2.2-.85,1.41-2.32-.91-1.69-2.4-3.69-1.52-5.31,1.69-3.09,.58-6.17,1.02-9.16,.37-2.48,1.28-5.07,2.36-7.57,.53,4.05,4.01,7.57,1.75,11.97-.33,.64-.14,1.36,.37,1.89,2.24,2.31,1.43,4.67,.27,7.14-1.37,2.91-1.26,3.25,1.92,3.43,2.04,.12,2.8,1.1,3.47,2.76,2.19,5.43,4.42,10.85,7.1,16.06,8.92,17.34,27.55,25.7,46.44,20.9,3.74-.95,7.16-2.56,10.37-4.68,.97-.64,1.77-1.64,3.14-1.74,.26,1.22-.69,1.73-1.29,2.34-8.04,8.15-17.9,12.68-29.07,14.63-5.52,.96-11.1,1.32-16.69,1.34-19.49,.06-38.98,.1-58.47,.03-8.48-.03-16.87-.86-24.89-3.95-6.95-2.68-13.28-6.31-18.38-11.84-.88-.96-1.98-1.8-2.33-3.21Z"/>
  <path class="cls-57" d="M475.46,454.26c.8-.04,1.6-.12,2.35,.38-.38,1.41-1.5,1.1-2.31,1.09-4.06-.05-7.99,.42-11.98,1.44-4.28,1.09-8.79,1.28-13.2,1.9-1.06,.15-2.1,.42-3.15,.63-1.11,1.46-2.72,.95-4.14,.96-6.9,.04-13.8,.06-20.7,0-5.71-.6-11.42-.6-17.13-.02-4.51,.11-9.02,.02-13.53,.05-6.66,0-13.32,0-19.99,0-1.77,0-3.54-.07-5.21,.69-2.49,1.37-5.14,1.25-7.82,.83-.24-.42-.57-.74-1.01-.96-2.26-.62-4.45,.46-6.71,.27-32.32-.07-64.62,.93-96.91,.27-11.69-.24-23.37-.1-35.05-.29-1.44-.02-3.04,.45-4.2-.93-2.87-.71-5.69-1.56-8.4-2.78-2.38-1.08-4.51-.91-5.88,1.61-.9,1.67-2.23,1.72-3.78,1.29-.4-.13-.74-.34-1.02-.65-4.65-3.76-9.74-2.6-14.63-.92-2.3,.79-4.23,1.11-6.63,.5-3.97-1.01-7.86,1.29-11.9,.82-.63-.07-1.32,.24-2.01,.25-7.35,0-14.69,.03-22.03-.01-3.08-.51-6.16-.59-9.24-.01-4.55,.06-9.11,.04-13.66,.01-2.33-.47-4.65-.5-6.98,0-2.53-.36-5.25,.91-7.6-.91-3.11-3.39-7.28-4.15-12.05-4.21,.81-1.56,1.75-1.28,2.58-1.27,1.46,.53,2.97,.27,4.45,.27,36.49,.02,72.99,0,109.48,.02,4.08,0,8.13-.73,12.22-.37,10.06,.83,20.14,.11,30.21,.36,1.7-.02,3.4,.02,5.1,.02,2.5-.29,3.94,2.87,6.63,2.02,14.21,.67,28.43,.26,42.62,.49,.53-.16,.96,.75,1.57,.14,.58-.75,1.4-.57,2.15-.62,.54-.04-.16,0,.38,0,.49,0,.51,0,.06,0-15.78,.86-31.54,.39-47.3-.05-1.09-.03-3.1,.65-2.52-1.87,2.48-.72,4.99-1.15,7.57-1.41,16.28-1.61,32.52-.89,48.78,.47,12.45,1.04,24.97,.14,37.45,.4,40.19,.84,80.38,.19,120.58,.38,1.49,0,3,.26,4.46-.27Z"/>
  <path class="cls-8" d="M356.78,219.98c-5.01,5.11-11.4,7.2-18.19,8.31-3.63,.6-7.3,.86-10.99,.85-30.53-.02-61.07-.01-91.6,0-5.89,0-11.71-.58-17.34-2.39-4.02-1.29-7.86-2.97-10.94-6.09,.83-.53,1.41-.09,2.04,.14,13.55,5.02,26.76,3.66,39.67-2.29,3.35-1.55,6.43-3.61,8.95-6.35,1.2-1.31,2.55-1.78,4.31-1.77,12.81,.04,25.63,.01,38.44-.03,1.7,0,3.1,.31,4.39,1.62,7.15,7.22,16.22,10.38,26.03,11.49,8.62,.98,17.14,.36,25.23-3.48Z"/>
  <path class="cls-53" d="M205.52,245.82c8.14,3.8,16.61,4.55,25.26,3.91,10.02-.74,19.19-3.85,26.92-10.49,1.36-1.17,2.75-1.57,4.45-1.57,13.49,.01,26.97,0,40.45-.03,1.56,0,2.86,.31,4.07,1.45,7.52,7.05,16.82,9.82,26.8,10.59,8.24,.63,16.33-.17,23.93-3.8,.19-.09,.5,.06,1.08,.16-1.9,2.22-4.24,3.49-6.62,4.66-6.59,3.24-13.64,4.68-20.94,4.74-17.3,.14-34.6,.23-51.9,.23-15.53,0-31.06-.07-46.58-.25-7.57-.09-14.88-1.59-21.62-5.24-2.02-1.09-4.05-2.22-5.32-4.34Z"/>
  <path class="cls-12" d="M236.86,426.4c-9.67-.4-19.33-.79-29-1.19,19.64-.8,39.3-.98,58.91-2.57-25.36-.82-50.73,.49-76.1-.09,26.74-1,53.48-2,80.22-3v-.79h-50.34c0-.35,0-.7,0-1.05,16.8-.47,33.61-.93,50.41-1.4-18.02-1.06-36.05-.57-54.84-.96,1.96-.79,3.29-.96,4.65-1,17.99-.47,35.98-.93,53.96-1.38,.27,0,.53,.1,.8,.15,3.83-2.66,10.41-2.65,14.2,.01,9.53,.13,19.07,.24,28.6,.4,10.77,.19,21.53,.44,32.3,.67,1.03,.02,2.06,0,3.09,.34-18.61,1.57-37.28,.34-55.91,1.74,17.25,.47,34.5,.94,51.75,1.42-16.93,1.57-33.93,.5-50.88,1.78,29.16,1.02,58.31,2.05,87.47,3.07-28.38-.32-56.76-.1-85.15-.17,22.03,2.24,44.14,1.93,66.25,3.05-1.6,0-3.2-.03-4.8,0-16.49,.32-32.97,1.05-49.47,.8-.81-.01-1.63,.08-2.45,.13-1.29,1.32-2.97,1.17-4.59,1.17-12.9,.01-25.84,.67-38.68-.21-10.15-.69-20.3,.11-30.4-.94Z"/>
  <path class="cls-8" d="M123.13,345.43c-.49-.08-.98-.15-1.47-.23-3.6-.06-6.99-1-10.01-2.36,2.19,1.31,5.34,1.03,7.4,3.29,1.34,1.13,3.35,.8,4.89,2.37-6.46,.96-12.22-.52-17.76-3.14-4.58-2.16-8.6-5.21-12.51-8.38-7.29-5.92-14.44-12-23.32-15.53-.06-.02-.03-.26-.06-.52,3.13-.51,6.15,.37,9.18,.75,10.54,1.33,20.97,3.14,30.85,7.3,3.27,1.37,6.43,2.92,9.43,4.82,1.02,.64,1.95,1.51,3.26,1.56,.6-.08,1.17,.16,1.76,.19,2.11,3.76,5.88,6.21,8.41,10.32-2.74,.83-5.09,.13-7.41,.13-.82-.44-1.84,0-2.64-.57Z"/>
  <path class="cls-61" d="M452.09,346.28c.52-.08,1.03-.15,1.55-.23,3.88-2.61,8.74-2.84,12.63-5.2-.08,.02,0,.07-.07,.1-4.87,2.09-9.67,4.16-15.03,4.33-.78,.06-1.56,.13-2.35,.19-1.67,.4-3.32,.46-5.22-.09,.72-1.81,2.14-1,3.08-1.35,.74-.88,1.95-.53,2.81-1.09,1.29-.71,2.86-.51,4.1-1.36-1.26,.85-2.85,.64-4.15,1.39-.81,.52-1.94,.15-2.64,.97-1.55,0-3.03,.65-4.59,.52-.35-1.82,1.35-2.04,2.27-2.77,3.01-2.4,6.44-4.26,9.17-7.03l-.12,.12c.26-.03,.6,.02,.79-.12,11.16-8.13,24.12-11.08,37.45-12.88,4.98-.67,10.01-.95,15.1-1.41-.12,.28-.15,.47-.23,.5-9.19,3.19-16.56,9.26-24.1,15.08-4.1,3.17-8.28,6.23-12.91,8.58-5.05,2.56-10.34,4.2-16.09,3.94-1.5-.07-2.98-.25-4.38-.83-.5-.21-.7-.56-.2-.34,.13,.06,.43-.27,.65-.42,.73-.58,1.72-.05,2.45-.59Z"/>
  <path class="cls-16" d="M340.26,347.57c-.58-1.2-.32-2.52-.32-3.78-.02-9.68,0-19.35,.01-29.03,0-.95-.05-1.91,0-2.86,.09-1.75-.72-2.45-2.44-2.4-2.45,.06-4.91,0-7.36,0-7.91,0-15.81-.03-23.72,0-3.34,.01-3.4,.07-3.41,3.45-.03,10.36,.02,20.72-.02,31.07,0,1.37,.41,2.91-.93,4.37-1.21-1.56-.83-3.08-.84-4.46-.05-9.54-.04-19.08-.05-28.62,0-1.09-.06-2.18-.01-3.27,.09-1.93-.78-2.63-2.7-2.6-5.59,.08-11.18,.03-16.77,.04-4.91,0-9.82,0-14.72,.01-4.06,.02-4.11,.03-4.12,4.01-.05,10.09-.04,20.17-.1,30.26,0,1.43,.31,2.96-.74,4.56-1.44-1.39-1-2.93-1-4.27-.05-9.68-.03-19.35-.04-29.03,0-.95-.03-1.91,.01-2.86,.09-1.84-.6-2.68-2.6-2.67-10.63,.06-21.27-.02-31.9,.02-2.85,.01-2.94,.12-2.96,3.53-.07,9.95-.06,19.9-.12,29.85,0,1.57,.18,3.19-.62,5.19-.85-1.2-.68-2.12-.68-2.96,0-11.18-.02-22.35,.02-33.53,.01-3.62,.06-3.66,3.59-3.7,4.09-.05,8.18,0,12.27-.03,3.84-.03,3.84-.05,3.99-3.72,.03-.82,.04-1.63,.11-2.45,.06-.73,.38-1.31,1.19-1.37,.86-.06,1.17,.53,1.28,1.26,.08,.54,.12,1.09,.11,1.63-.08,5.14,.22,4.64,4.75,4.65,9.27,0,18.54,.02,27.81-.02,3.57-.02,3.59-.08,3.64-3.66,.05-3,.03-6,.07-8.99,.01-.85,.19-1.69,1.25-1.77,1.15-.08,1.8,.54,1.82,1.69,.05,2.86,.04,5.72,.08,8.58,.05,4.12,.06,4.15,3.97,4.16,9.13,.02,18.27,.03,27.4,0,3.83-.01,3.74-.06,4.01-3.75,.09-1.25-.99-3.56,1.28-3.53,1.82,.02,1.08,2.17,1.1,3.39,.06,3.91-.11,3.92,4.2,3.93,4.23,0,8.45,.03,12.68-.02,1.68-.02,2.56,.62,2.55,2.36-.06,12.13-.12,24.26-.19,36.38,0,.38-.07,.83-.82,.99Z"/>
  <path class="cls-78" d="M398.35,508.18c-80.94,1.78-161.88,2-242.82-.42,80.94-.2,161.87-1.06,242.82,.42Z"/>
  <path class="cls-82" d="M137.85,345.34c-.44,.05-.89,.1-1.33,.15-.88,.36-1.18,0-1.08-.86,2.49-2.35,2.65-4.73,1.07-7.9-2.37-4.77-3.3-10.04-3.77-15.38-.37-4.19-1.02-8.36-1.54-12.54-2.49-3.47-2.87-8.68-.8-10.86,1.57,3.32,3.1,6.65,4.71,9.94,1.55,3.17,2.51,6.55,3.56,10.55,3-4.14,4.4-8.48,6.8-12.42,.28,7.32,2.42,14.48,1.36,21.85-.17,1.18-.69,2.31-1.12,3.43-.01,.03-1.2-1.53-1.05,.36,.19,2.33-1.39,4.34-1.38,6.93,2.84-.83,5.21-2.75,8.18-2.36,1.18-.47,2.41-.31,3.62-.27,.99,.03,2.39-.5,2.65,1.06,.21,1.22-.73,2.04-1.72,2.52-4.3,2.08-8.31,4.93-13.44,4.8-1.6-.04-3.11,.81-4.72,1.01Z"/>
  <path class="cls-4" d="M289.73,413.15c-4.73,0-9.46,0-14.2-.01-4.67-1.08-9.44-1.28-14.19-1.42-22.88-.65-45.76-1.25-68.63-1.86-.19-.11-.37-.22-.56-.33,.19-.1,.38-.21,.57-.31,62.44-.01,124.89-.03,187.33-.04,.59,.24,.58,.47-.02,.69-15.76,.3-31.52,.56-47.28,.92-11.27,.26-22.55,.63-33.81,1.05-3.1,.11-6.23,.23-9.21,1.32Z"/>
  <path class="cls-101" d="M412.81,474.24c-86.64,.77-172.79,.73-258.93-.02,86.15-1.78,172.29-1.96,258.93,.02Z"/>
  <path class="cls-105" d="M176.72,392.64c1.67-.78,3-.53,4.27-.54,22.89-.12,45.79,.02,68.68-.42,13.07-.25,26.15-1.02,39.22-.61,32.69,1.04,65.4,.71,98.09,1.03,.93,0,1.91-.2,3.02,.46-.86,.97-1.97,.86-2.96,.87-24.25,.04-48.5,.66-72.76-.25-20.57-.77-41.15-.82-61.72-.13-23.44,.78-46.87,.6-70.31,.42-1.7-.01-3.48,.26-5.55-.84Z"/>
  <path class="cls-95" d="M419.24,481.84c-26.86,.08-53.71,.23-80.57,.22-12.41,0-24.81,.44-37.2,.84-18.27,.58-36.52-.18-54.78-.55-20.71-.41-41.44-.26-62.16-.36-8.45-.04-16.9-.09-25.35-.14-.19-.11-.38-.23-.58-.34,.2-.1,.4-.2,.6-.3,14.17-.09,28.35-.02,42.52-.29,35.3-.65,70.6,.48,105.9-.05,37.21-.56,74.41,.41,111.62,.36,.21,.1,.41,.2,.62,.3-.2,.1-.41,.21-.61,.31Z"/>
  <path class="cls-49" d="M359.59,460.66c.78,1.17-.59,1.04-.93,1.53-14.59-.1-29.17,.17-43.75,.55-21.82,.57-43.63,.59-65.45-.07-13.77-.42-27.54-.65-41.31-.99-1.34-.03-2.72,.14-4.83-.69,4.35-.17,7.91-.3,11.46-.44,13.73,0,27.47-.04,41.2-.02,31.01,.04,62.02,.11,93.04,.16,1.36,0,2.71-.07,4.07-.11,2.17-.27,4.35-1.56,6.5,.1Z"/>
  <path class="cls-21" d="M250.13,428.08c4.3,.18,8.59,.07,12.89-.19,1.04-.87,2.3-.73,3.51-.73,13.48-.02,26.96-.01,40.45,0,1.22,0,2.47-.1,3.52,.73,16.48,.73,32.97,.76,49.46,.93,2.58,.03,5.16,0,7.73,.32-54.92,1.49-109.84,2.1-164.77-.46h14.35c8.66-.66,17.33-.1,25.99-.31,2.29-.06,4.6,.34,6.87-.28Z"/>
  <path class="cls-91" d="M194.72,532.18c61.13-1.45,122.27-1.52,183.4-.01-61.13,.75-122.27,1.02-183.4,.01Z"/>
  <path class="cls-79" d="M342.39,449.13c-31.06,.34-62.11,1.51-93.18,.52-16.34-.53-32.7-.39-49.04-.55,.49-2.19,2.21-.98,3.3-1.04,5.7-.3,11.42,.3,17.12-.35,39.23-.22,78.47-.6,117.7-.14,1.36,.02,2.72,.08,4.08,.13,.54,.47,.53,.95,.02,1.43Z"/>
  <path class="cls-45" d="M334.18,444.21c-34.59,1.35-69.18,.95-103.77-.01-.55-.92,.27-1.07,.78-1.39,34.06-.72,68.12-1.01,102.18-.01,.51,.33,1.32,.5,.8,1.41Z"/>
  <path class="cls-34" d="M438.16,324.9c.25,2.73,1.63,5.37,.69,8.2-.73,1.32,.17,2.89-.66,4.19,.03,.53,.03,1.06,.08,1.59,.23,2.39-1.01,2.28-2.62,1.54-.88,.17-1.16-.19-.91-1.03-3.67-3.15-3.09-7.53-3.45-12.08-.63,2.08,.08,3.93-.79,6.04-2.87-4.59-3.27-9.32-3-14.17,.27-4.73,1.53-9.34,1.59-14.22,2.02,2.03,5.88,9.27,7.5,13.96,3.04,1.33,2.08,3.71,1.57,5.97Z"/>
  <path class="cls-29" d="M219.69,522.98c40.62-.26,81.25-.27,121.87,0,5.96,.63,11.94,.04,17.9,.34,1.05,.05,2.8-1.22,3.22,1.04-53.32,.43-106.63,.32-159.95,0,.2-2.12,1.85-.99,2.74-1.05,4.73-.3,9.48,.28,14.21-.34Z"/>
  <path class="cls-25" d="M124.76,335.56c-.63,.34-1.21,.24-1.76-.19-5.63-5.77-8.9-12.98-12.28-20.12-.74-1.56-1.32-3.2-1.98-4.82,1.47-.59,2.01,.46,2.71,.95,3.56,2.52,7.12,5.04,10.57,7.72,2.69,2.09,5.21,4.4,6.83,7.49,2.45,.76,2.06,3.03,2.57,4.82,.99,1.58,1.86,3.21,2.33,5.66-4.25-1.56-7.39-4.13-10.94-6.81-.07,2.36,1.68,3.58,1.96,5.32Z"/>
  <path class="cls-80" d="M203.81,515.83c53.9-.59,107.8-.59,162.41-.11-14.32,1.83-133.09,1.93-162.41,.11Z"/>
  <path class="cls-52" d="M210.73,400.88c46.34,0,92.67-.02,139.01-.03,4.46-.65,8.94-.14,13.4-.27,.69-.02,1.39,.08,1.19,1.09-20.14,.37-40.28,.86-60.42,1.07-23.68,.24-47.36,.04-71.04-.64-11.15-.32-22.32-.3-33.48-.43-.19-1.01,.51-1.11,1.2-1.08,3.38,.13,6.78-.41,10.14,.3Z"/>
  <path class="cls-51" d="M438.16,324.9c-1.09-1.84-1.15-3.95-1.57-5.97,.85-.45,.86-1.33,1.03-2.1,.96-4.42,2.96-8.43,4.8-12.51,1.94-4.28,3.84-8.58,5.98-12.82-.57,11.72,1.85,23.7-3.14,35.47-1-1.77-.3-3.1-.42-4.39,.61-1.37-.12-2.91,.54-4.27,.08-1.03,.15-2.07,.23-3.1,1.02-2.45-.91-5.01,.08-6.87-.34,.76,.18,2.39-.87,3.6l-.25,2.17c-.49,.83-.06,1.84-.56,2.67-.08,.76-.16,1.52-.25,2.28-.5,.81-.1,1.8-.52,2.63-.43,2.75-.88,5.5-1.99,8.4-1.39-1.68-1.15-4.13-3.09-5.18Z"/>
  <path class="cls-97" d="M453.67,334.67c-.95,.03-2.14,.23-1.29-1.37,1.2-2.26,2.77-4.33,3.39-7.03-3.62,2.54-6.3,6.35-10.66,8.13-1.09-1.69-.39-3.01,.2-4.33,1.74-3.91,4.09-7.39,7.42-10.11,4.74-3.87,9.84-7.23,14.97-10.47,1.14,.83,.37,1.55,.09,2.19-3.59,7.96-7.57,15.68-13.73,22.04-.26,.27-.34,.71-.5,1.07,0,0,.12-.12,.12-.12Z"/>
  <path class="cls-86" d="M321.64,433.74c-27.47,1.86-54.96,1.86-82.45,.33,27.47-1.6,54.95-2.56,82.45-.33Z"/>
  <path class="cls-6" d="M240.98,466.51c27.24-.6,54.48-.49,81.72-.1,5.04,.07,10.08,.14,15.12,.26,1.48,.04,3-.14,5.2,.9-2.06,.15-3.4,.32-4.75,.34-27.51,.45-55.03,.78-82.54,.32-7.9-.13-15.8-.2-23.7-.3,.38-2.19,2.06-.89,3.12-1.07,1.91-.32,3.91,.28,5.83-.35Z"/>
  <path class="cls-2" d="M44.53,356.55c3.45-.68,6.69-.06,9.94,.07,10.67,.44,21.2-.55,31.65-2.63,7.67-1.53,15.39-1.88,23.13-.47,2.38,.43,4.76,.91,6.82,2.48-.54,1.16-1.43,.79-2.09,.68-7.9-1.34-15.76-.4-23.59,.55-13.57,1.64-27.13,1.98-40.72,.32-1.73-.21-3.44-.65-5.15-.98Z"/>
  <path class="cls-19" d="M125.49,423.78c-12.38,6.96-25.91,7.67-39.77,7,4.23-1.63,8.54-3.09,12.67-4.93,5.62-2.49,11.6-3.67,17.48-5.24,3.43-.92,6.97-1.08,10.52-.77,.7,2.06-.81,1.98-2.13,2.49-6.73,2.6-13.81,4-19.43,5.82,5.07-1.69,11.61-2.88,17.8-5.27,1.22-.47,2.53-1.4,2.85,.9Z"/>
  <path class="cls-18" d="M446.21,421.56c-.3-.24-1.25-.73-.2-.83,5.15-.51,10.31-.67,15.38,.8,9,2.61,17.75,5.94,26.6,8.96,.18,.06,.28,.38,.62,.87-12.31,.18-24.34,.12-35.69-5.07,.2-2.19,1.53-1.49,2.84-1.19,4.79,1.08,9.44,2.8,13.03,3.19-5.73-1.35-12.75-3-19.76-4.76-1.4-.35-1.83-1.41-2.82-1.96Z"/>
  <path class="cls-76" d="M240.92,438.2c25.92-.69,51.85-2.09,77.77,.25-25.93,2.49-51.85,1.7-77.77-.25Z"/>
  <path class="cls-88" d="M227.3,488.05c37.01-1.51,74.02-1.68,111.02-.01-37.01,1.07-74.01,1-111.02,.01Z"/>
  <path class="cls-35" d="M32.01,368.68c64.02-.7,128.05-.52,192.07-.05-64.02,1.13-128.05,.89-192.07,.05Z"/>
  <path class="cls-9" d="M330.9,406.56c-32.14,.96-64.27,1.06-96.41,0,.54-2.12,2.23-1,3.34-1.04,7.32-.28,14.66,.31,21.99-.34,14.99-.67,29.97-.3,44.96,0,7.59,.69,15.2,.06,22.79,.35,1.11,.04,2.8-1.06,3.34,1.05Z"/>
  <path class="cls-24" d="M443.88,441.06c-2.79-4-5.32-8.15-7.08-13.58-1.61,4.96-4.51,8.29-7.59,11.75-.13-2.53-.42-5.06-.37-7.59,.13-5.91,4.06-9.78,10.29-10.36,5.11,5.4,5.31,12.36,6,19.14,.05,.54-.66,.74-1.25,.62Z"/>
  <path class="cls-81" d="M363.85,414.14c2.93-1.07,77.04-1.41,84.41-.44-1.53,1.13-3.04,1.03-4.45,1.04-25.33,.09-50.66,.53-75.99,.15-1.27-.02-2.64,.22-3.98-.75Z"/>
  <path class="cls-65" d="M131.35,439.43c-.57,1.39-1.47,2.49-3.07,3.67-.16-4.75,1.15-8.9,1.31-13.77-3.56,3.77-7.3,6.25-12.24,8.01,3.43-6.98,7.73-12.13,14.29-15.19,1.39-.65,2.55-.6,3.68,.41,1.97,1.15,1.09,2.84,.75,4.34-1,4.38-3.21,8.32-4.72,12.52Z"/>
  <path class="cls-85" d="M241.11,500.07c30.43-.38,60.86-.38,91.3,0,.15,1.79-1.25,.99-1.96,1.06-2.56,.25-5.15-.3-7.7,.32-23.99,.31-47.97,.45-71.96,0-2.54-.61-5.13-.07-7.68-.31-.73-.07-2.09,.68-1.99-1.07Z"/>
  <path class="cls-22" d="M58.51,360.31c6.95-.27,13.87-.22,20.78-.92,6.5-.66,13.03-.95,19.55-1.43,5.73-.43,11.38-.05,16.91,1.37,.19,1.4-.73,1.46-1.47,1.63-2.01,.44-4.06,.36-6.1,.26-7.21-.33-14.42-.24-21.63,.17-9.36,.54-18.73,.74-28.03-1.08Z"/>
  <path class="cls-38" d="M131.35,439.43c-.55-1.07-.21-2.1,.09-3.16,1.3-4.56,2.59-9.14,3.88-13.7,1.07-1.69,2.6-1.47,4.19-1.03,.88,0,1.87,.31,1.87,1.16-.02,2.99,1.88,5.49,1.91,8.43-.06-2.05-.9-3.89-1.58-5.77-.25-.68-.24-1.4,.61-1.58,.6-.13,.94,.36,1.07,.94,2.02,1.91,2.72,4.34,2.54,7-.19,2.77-.57,5.53-.96,9.12-2.56-4.47-5.29-7.88-6.92-12.81-2.07,4.58-3.65,8.45-6.7,11.4Z"/>
  <path class="cls-20" d="M137.85,345.34c1.53-1.51,3.59-1.88,5.5-2.56,4.35-1.55,8.6-3.29,13.17-5.69-1.91-1.08-3.57-.55-5.06-.86,2.97-1.18,6.17-.18,9.32-1.51-2.59,8.96-10.5,14.81-18.21,13.85-.77-.09-1.85,0-1.85-1.08,0-.52,.74-1.03,1.31-1.75-1.4-.49-2.95,.59-4.18-.42Z"/>
  <path class="cls-30" d="M438.58,359.81c-14.72,6.26-29.42,5-44.11,.11,14.73,2.58,29.41-.95,44.11-.11Z"/>
  <path class="cls-47" d="M260.81,397.29c-33.78,.94-67.51-.11-101.25-.78,33.76-.77,67.52-.49,101.25,.78Z"/>
  <path class="cls-54" d="M203.51,414.37c-5.97,1.18-68.86,.53-76.84-.66,6.32-1.04,73.48-.66,76.84,.66Z"/>
  <path class="cls-48" d="M316.19,494.91c-22.59,.35-45.18,.28-67.77,0-.59-.46-.59-.92,.01-1.38,23.91-.43,47.81-.4,71.72,0-.62,2.45-2.86,.31-3.96,1.39Z"/>
  <path class="cls-62" d="M310.34,396.71c1.44-.52,2.94-.53,4.44-.53,30.36-.11,60.72-.42,91.08-.11,1.08,.01,2.15,0,3.37,0-.71,1.22-1.67,.82-2.44,.83-21.51,.31-43.01,.59-64.52,.86-1.08,.01-2.17-.14-3.25-.21-8.12-.61-16.26-.07-24.39-.3-1.43-.04-2.99,.57-4.29-.54Z"/>
  <path class="cls-1" d="M135.19,357.26c12.12-8.22,25.1-9.4,38.8-4.85-13.33-1.37-25.89,3.11-38.8,4.85Z"/>
  <path class="cls-73" d="M307.75,478.81c-16.93,.86-33.86,.9-50.85-.15,0-1.45,1.1-1.1,1.71-1.19,1.48-.2,2.98-.27,4.47-.3,12.37-.19,24.75-.22,37.12,.09,2.54,.06,5.07,.33,7.6,.51-.02,.35-.04,.69-.06,1.04Z"/>
  <path class="cls-74" d="M161.3,405.2c31.89-.07,63.78-.15,95.67-.21,.95,0,1.9,.12,2.85,.19-1.54,.65-3.17,.58-4.78,.6-5.26,.05-10.51,.08-15.77,.13-1.62,.02-3.24-.03-4.77,.66-7.49,.44-14.99,.09-22.47-.13-16.89-.51-33.79-.43-50.69-.69"/>
  <path class="cls-14" d="M486.02,423.47c-11.51-2.39-21.73-8.94-33.74-9.54,2.63-1.97,5.57-2.04,8.47-1.98,3.72,.08,7.28,.98,10.64,2.6,5.16,2.5,9.81,5.83,14.63,8.92Z"/>
  <path class="cls-87" d="M330.9,406.56c-1.53-.69-3.16-.63-4.77-.65-5.53-.05-11.06-.09-16.58-.14-1.62-.01-3.25,.07-4.78-.62,3.4-.06,6.81-.17,10.21-.16,29.73,.05,59.46,.13,89.18,.19,1.63,0,3.26,0,4.9,.57-1.79,0-3.58-.01-5.37,0-22.64,.15-45.27,.33-67.9,.94-1.63,.04-3.26-.09-4.9-.15Z"/>
  <path class="cls-90" d="M88.98,422.63c5.49-3.11,10.22-6.79,15.79-8.95,5.48-2.12,11.06-2.3,16.62-.13-.28,1.42-1.28,1.08-1.98,1.08-4,0-7.76,1.04-11.49,2.38-5.23,1.89-10.5,3.63-15.76,5.44-.87,.3-1.72,.76-3.19,.17Z"/>
  <path class="cls-99" d="M364.33,401.67c-3.21-.83-6.49-.32-9.73-.53-1.62-.1-3.24-.2-4.87-.29,1.29-.54,2.66-.55,4.02-.56,19.61-.17,39.23-.41,58.84-.02,1.71,.03,3.46-.02,5.22,.72-.82,1.03-1.68,.74-2.42,.74-16.21,.08-32.42,.13-48.63,.17-.81,0-1.62-.15-2.43-.23Z"/>
  <path class="cls-28" d="M192.71,409.2c.01,.22,0,.43-.01,.65-1.08,.07-2.17,.22-3.25,.21-26.13-.29-52.27-.6-78.4-.92-1.07-.01-2.13-.09-3.67-.17,1.52-.75,2.63-.55,3.69-.56,26.27-.14,52.54-.44,78.81,.48,.95,.03,1.89,.2,2.83,.31Z"/>
  <path class="cls-96" d="M310.5,427.88c-1.75,.04-3.51,.16-5.26,.12-12.72-.26-25.45-.26-38.17,0-1.35,.03-2.7-.07-4.05-.11-1.65-.79-3.43-.67-5.18-.68-5.41-.03-10.81-.05-16.22-.08-1.62,0-3.26,.05-4.76-.72,8.41-.01,16.82,0,25.23-.04,14.66-.05,29.32-.13,43.97-.18,1.49,0,2.97,.12,4.46,.19,0,.5-.02,1.01-.03,1.51Z"/>
  <path class="cls-98" d="M335.46,368.57c38.13-.41,76.26-.61,114.4-.06-8.66,1.16-98.36,1.21-114.4,.06Z"/>
  <path class="cls-5" d="M362.69,524.36c-2.64-.99-5.4-.49-8.1-.67-4.34-.29-8.73,.35-13.02-.72,1.63-.08,3.26-.24,4.89-.24,19.48,.08,38.96,.18,58.44,.3,2.02,.01,4.07-.15,6.08,.77-.58,.91-1.45,.53-2.12,.54-14.3,.11-28.61,.19-42.91,.25-1.08,0-2.17-.15-3.25-.23Z"/>
  <path class="cls-100" d="M395.47,343.15c11.49,3.95,23.13,7.16,34.07,12.28-13.01,.36-23.74-5.57-34.07-12.28Z"/>
  <path class="cls-70" d="M131.42,331.4c-1.43-1.3-2.16-2.98-2.57-4.82,.19-.33,.6-.7,.54-.97-1.67-7.33-1.32-14.76-1.31-22.18,0-3.74,.04-7.49-.22-11.28,1.24,1.78,2.02,3.74,2.54,5.8-.7,1.26-.34,2.53-.12,3.84,.4,2.32,1.17,4.61,.91,7.02-1.07,1.76-.57,3.69-.44,5.51,.29,4.15,.77,8.28,1.22,12.42,.18,1.61,.47,3.21-.56,4.66Z"/>
  <path class="cls-77" d="M342.39,449.13c0-.48-.01-.95-.02-1.43,2.72-.05,5.44-.14,8.16-.14,18.93,0,37.86,.36,56.8,1.49-1.63,0-3.25,0-4.88,0-19.07,.09-38.15,.18-57.22,.26-.95,0-1.9-.12-2.85-.18Z"/>
  <path class="cls-36" d="M303.49,388.56c5.17-1.4,40.6-1.06,58.84,.37-5.11,.96-55.07,.84-58.84-.37Z"/>
  <path class="cls-13" d="M210.73,400.88c-3.74,.79-7.61-.21-11.33,.79-1.35,.08-2.71,.24-4.06,.23-13.05-.06-26.11-.14-39.16-.26-1.74-.02-3.54,.27-5.53-.76,.87-.84,1.81-.67,2.64-.68,17.95-.21,35.89-.18,53.84,.1,1.23,.02,2.45,.06,3.6,.57Z"/>
  <path class="cls-94" d="M219.69,522.98c-3.59,1.03-7.28,.48-10.93,.72-2.02,.14-4.09-.18-6.03,.66-2.97,.49-5.97,.22-8.95,.22-11.95,.03-23.91,.01-35.86,.01-.03-.3-.07-.61-.1-.91,1.73-.2,3.47-.55,5.2-.57,18.35-.15,36.7-.25,55.05-.36,.54,0,1.07,.14,1.61,.21Z"/>
  <path class="cls-50" d="M244.62,369.49c10.49-1.16,60.1-1.22,72.97-.19-3.98,.85-59.95,1.08-72.97,.19Z"/>
  <path class="cls-68" d="M334.18,444.21c-.27-.47-.53-.94-.8-1.41,.95-.07,1.9-.19,2.84-.19,16.75,.05,33.51,.12,50.26,.19,1.76,0,3.53,0,5.3,.52-5.18,.19-10.36,.41-15.54,.57-14.02,.44-28.04,.63-42.07,.32Z"/>
  <path class="cls-41" d="M231.19,442.81c-.26,.46-.52,.92-.78,1.39-1.35,.07-2.71,.21-4.06,.2-16.46-.13-32.92-.14-49.36-.9-.94-.04-1.87-.09-3.11-.15,1.04-.69,1.88-.48,2.66-.49,17.41-.1,34.82-.18,52.23-.25,.81,0,1.62,.13,2.43,.2Z"/>
  <path class="cls-60" d="M259.34,547.13c4.01-1.01,41.31-.98,45.08,.04-3.92,1.44-41.1,1.41-45.08-.04Z"/>
  <path class="cls-59" d="M220.59,447.71c-4.35,1.19-8.82,.52-13.22,.81-2.4,.16-4.85-.24-7.2,.58-5.56,.55-11.14,.15-16.71,.2-7.19,.06-14.38,.02-21.57,.02,0-.26-.02-.53-.03-.79,3.81-.23,7.61-.61,11.42-.66,15.09-.18,30.19-.26,45.29-.37,.67,0,1.35,.14,2.02,.21Z"/>
  <path class="cls-107" d="M241.11,500.07c1.74,.8,3.6,.6,5.43,.68,1.44,.06,2.89,.06,4.24,.7-4.88,.5-9.77,.13-14.66,.13-8.29,0-16.58-.11-24.87-.21-1.31-.02-2.7,.32-4.83-1.08,12.16-.55,23.42-.61,34.69-.22Z"/>
  <path class="cls-26" d="M316.71,539.63c-23.46,.96-47.01,.93-70.56,.02,23.48-.84,46.97-.81,70.56-.02Z"/>
  <path class="cls-32" d="M444.71,422.95c.26,.08,.51,.17,.76,.25,1.49,.19,3.04,.29,3.31,2.26,4.24,3.99,5.92,6.53,7.32,11.29-3.75-2.07-7.2-3.99-9.85-7.07-1.49-1.04-2.26-2.58-2.86-4.21-.46-1.26-.43-2.37,1.33-2.52Z"/>
  <path class="cls-11" d="M532.66,368.7c-22.35,.73-44.8,.8-67.24,.03,22.38-.56,44.77-.61,67.24-.03Z"/>
  <path class="cls-44" d="M141.54,224.32c4.62-3.2,8.88-3.24,12.03-.68,2.96,2.4,3.62,5.91,1.7,11.02-1.52-7.41-5.48-11.23-13.73-10.34Z"/>
  <path class="cls-23" d="M322.75,501.45c1.73-.79,3.59-.65,5.42-.73,1.44-.06,2.89-.02,4.24-.66,9.3-.53,18.59-.04,27.88,.19-3.15,1.36-28.59,2.01-37.54,1.2Z"/>
  <path class="cls-89" d="M143.4,424.71c-.96-.02-1.08,.48-.85,1.29,.52,1.82,1,3.65,1.48,5.48,.33,1.27,.59,2.54-.04,4.61-1.36-5.44-2-10.3-4.46-14.56,1.28-1.65,2.94-.87,4.46-.62,3.98,.66,7.74,2.35,12.54,2.34-3.49,1.49-6.39,1.57-9.38,1.08-1.23-.2-2.63-1.06-3.74,.37Z"/>
  <path class="cls-37" d="M434.75,339.4c.3,.34,.61,.68,.91,1.03-.59,.54-1.26,.38-1.91,.17-6.99-2.28-13.87-4.83-20.25-8.55-.34-.2-.59-.54-1.49-1.41,6.88,2.09,13.27,3.12,18.82,6.7,1.24,.8,2.37,1.86,3.93,2.06Z"/>
  <path class="cls-104" d="M448.78,425.47c-1.29-.49-2.43-1.19-3.31-2.26,.25-.55,.49-1.1,.74-1.65,5.88,1.61,11.78,3.15,17.63,4.87,3.2,.94,6.62,1.19,10.48,3.07-4.4-.1-7.78-1.06-11.19-1.76-2.52-.52-5.02-1.14-7.53-1.72-.92-.21-1.85-.54-2.67,.27-1.47,.17-2.53-1.72-4.15-.82Z"/>
  <path class="cls-102" d="M426.61,243.42c-1.38-4.04-.85-7.48,2.56-9.98,2.66-1.95,6.41-1.62,10.35,1.02-6.97-.38-11.33,2.34-12.91,8.96Z"/>
  <path class="cls-75" d="M125.49,423.78c-.84-1.01-1.71-.35-2.57-.04-7.05,2.53-14.33,4.13-21.74,5.64,.52-1.12,1.53-1.15,2.42-1.42,6.35-1.97,12.71-3.91,19.04-5.96,1.36-.44,3.02-.55,3.75-2.16,2.59,.85,2.84,1.4,1.21,2.83-.58,.51-1.4,.75-2.11,1.11Z"/>
  <path class="cls-42" d="M260.04,385.3c-17.61,.39-35.23,.07-53.58-.04,5.97-.87,49.61-1,53.58,.04Z"/>
  <path class="cls-84" d="M303.71,385.34c4.48-1.04,45.25-.87,51.32,0h-51.32Z"/>
  <path class="cls-106" d="M391.66,460c1.86,.46,3.72,.92,5.58,1.37-10.26,.41-20.52-.03-30.77-.01,1.03-1.04,2.35-1.29,3.72-1.31,7.16-.1,14.31-.43,21.47-.05Z"/>
  <path class="cls-64" d="M248.43,493.53c0,.46,0,.92-.01,1.38-7.64,.72-23.23,.22-26.23-1.14,8.74-.26,17.48-.75,26.24-.24Z"/>
  <path class="cls-56" d="M316.19,494.91c1.32-.46,2.64-.93,3.96-1.39,8.19-.47,16.37,0,24.55,.21-3.29,1.45-19.51,2-28.51,1.18Z"/>
  <path class="cls-46" d="M167.3,461.38c2.05-1.05,4.49-.3,6.54-1.37,6.39-.86,12.63-3.28,19.28-1.57,1.4,.36,2.65,.56,3.57,1.71-.02,.18-.01,.35,.04,.52-.84,.49-1.76,.69-2.72,.69-8.9,.04-17.81,.44-26.71,.02Z"/>
  <path class="cls-104" d="M443.88,441.06c.15-.22,.47-.47,.42-.64-1.62-6.4-2.41-13.03-5.17-19.12,1.41-.05,2.46,.5,3.05,1.81,1.2,2.39,2.37,4.8,2.41,7.55,.02,1.22,.62,.6,1.11,.47,1.14,2.57,.54,5.31,.72,7.97,.1,1.6,.02,3.21,.02,5.08-1.52-.52-1.98-1.87-2.56-3.12Z"/>
  <path class="cls-92" d="M308.36,372.72c-15.45,.62-30.94,.92-46.42,.02,15.46-.73,30.93-.49,46.42-.02Z"/>
  <path class="cls-83" d="M260.81,388.1c-14.06,1.12-28.19,.78-42.31,0h42.31Z"/>
  <path class="cls-103" d="M159.2,481.2c0,.22-.02,.43-.02,.65-8.14,.45-16.29,.05-24.43,.1-6.23,.04-12.45,0-18.68,0,0-.31,0-.62,0-.94,9.76,0,19.53-.03,29.29,.01,4.61,.02,9.23-.32,13.83,.17Z"/>
  <path class="cls-69" d="M302.75,376.28h-37.74c0-.16,0-.32,0-.47h37.62c.04,.16,.08,.32,.12,.47Z"/>
  <path class="cls-3" d="M310.34,396.71c7.69,.1,15.38,.19,23.07,.3,1.88,.03,3.79-.14,5.61,.54h-34.59c1.89-.96,3.92-.76,5.91-.84Z"/>
  <path class="cls-39" d="M463.05,420.59c-3.86-.71-7.47-1.38-11.5-2.13,3.9-3.17,8.76-2.16,11.5,2.13Z"/>
  <path class="cls-31" d="M122.91,417.83c-4.28,1.39-8.6,1.69-12.94,3.57,3.93-4.74,9.05-6.14,12.94-3.57Z"/>
  <path class="cls-96" d="M250.13,428.08c-4.29,.76-8.64,.48-12.96,.56-6.63,.13-13.27,.03-19.9,.03,.78-.21,1.56-.6,2.34-.6,10.17-.06,20.34-.45,30.51,.02Z"/>
  <path class="cls-10" d="M451.18,345.29c6.41-1.76,12.69-3.87,18.74-6.65l.27,.3c-4.87,3.88-10.54,5.9-16.55,7.11-.82-.26-1.64-.51-2.46-.77Z"/>
  <path class="cls-55" d="M240.98,466.51c-2.85,1.3-6.1,.09-8.95,1.42-3.33,.29-6.64,.19-9.95-.63,6.27-.99,12.58-1.09,18.9-.79Z"/>
  <path class="cls-15" d="M419.24,481.84c0-.21,0-.41,0-.62,9.49-.52,18.98-.03,28.47,.31-9.49,.34-18.97,.81-28.46,.3Z"/>
  <path class="cls-67" d="M445.7,431.12c-.42,1.68,.24,3.46-.57,5.63-1.24-4.5-2.38-8.56-3.45-12.64-.07-.27,.33-.67,.51-1.01,0,0,.02,.02,.02,.02,2.08,1.69,3.02,3.98,3.44,6.55,.02,.48,.04,.97,.06,1.45Z"/>
  <path class="cls-63" d="M119.05,346.13c-4.76-.99-9.01-3.11-12.99-5.86,5.1,2.01,10.45,3.16,15.6,4.93-.87,.31-1.74,.62-2.61,.93Z"/>
  <path class="cls-72" d="M444.82,311.93c-.04-3.16,.69-6.16,2.01-9.06-.46,4.11,.05,8.3-1.21,12.33-.27-1.09-.53-2.18-.8-3.27Z"/>
  <path class="cls-52" d="M289.59,403.59c-4.06,1.21-11.05,1.26-15.82,.18,5.76-.67,10.79-.42,15.82-.18Z"/>
  <path class="cls-66" d="M310.29,333.62c-.32,1.14-1.04,1.87-2.26,1.78-1.3-.1-1.82-.98-1.63-2.21,.16-1.05,.87-1.67,1.92-1.61,1.2,.07,1.93,.75,1.97,2.05Z"/>
  <path class="cls-58" d="M183.05,427.3h11.25c-3.69,1.04-7.4,.74-11.25,0Z"/>
  <path class="cls-43" d="M277.12,385.25c3.65-.92,7.44-1.12,11.22,0h-11.22Z"/>
  <path class="cls-104" d="M445.64,429.68c-1.15-2.18-2.29-4.36-3.44-6.55,.81-.39,1.59-1.13,2.5-.18-.7,.76-.27,1.47,.07,2.2,.67,1.45,1.49,2.85,1.47,4.53,0,0-.3,.01-.3,.01h-.3Z"/>
  <path class="cls-10" d="M447.03,343.62c-.63,.41-1.26,.82-2.33,1.51,1.65,.14,2.89,.25,4.13,.35-2.37,.83-4.7,1.34-6.59-1.01,1.52-.86,3.21-.64,4.85-.79l-.06-.06Z"/>
  <path class="cls-51" d="M438.2,337.29c-.1-1.45-.08-2.88,.66-4.19,.13,1.45-.09,2.85-.66,4.19Z"/>
  <path class="cls-72" d="M445.39,318.3c.21,1.47,.21,2.92-.54,4.27-.3-1.49-.15-2.91,.54-4.27Z"/>
  <path class="cls-72" d="M444.01,316.77c-.16-.96-.02-1.86,.56-2.67,.23,.98-.05,1.85-.56,2.67Z"/>
  <path class="cls-10" d="M452.09,346.28c-.72,.59-1.55,.75-2.46,.59,.74-.53,1.53-.82,2.46-.59Z"/>
  <path class="cls-63" d="M123.13,345.43c.95-.13,1.85-.05,2.64,.57-.97,.22-1.83-.06-2.64-.57Z"/>
  <path class="cls-20" d="M135.44,344.63c.36,.29,.72,.57,1.08,.86-.38,.39-.89,.59-1.31,.27-.53-.4-.21-.82,.22-1.13Z"/>
  <path class="cls-72" d="M443.24,321.68c-.18-.95-.02-1.82,.52-2.63,.21,.95,0,1.82-.52,2.63Z"/>
  <path class="cls-71" d="M196.69,460.14c-7.62-.29-15.23-.52-22.85-.14-4.07-.1-8.14-.19-12.2-.29,.43-.33,.87-.98,1.28-.96,3.91,.19,7.79-1.42,11.62-.59,2.62,.57,4.78,.4,6.99-.97,3.52-2.19,7.38-1.68,11.12-1,1.97,.36,3.96,1.34,4.05,3.94Z"/>
  <path class="cls-93" d="M259.02,457.28c-.01-1.29,.98-1.09,1.72-1.09,16.89,0,33.77-.07,50.66,.04,.25,0,.5,.2,.75,.31,1.06,.71,.11,.71-.31,.77-2.65,.34-5.38-.08-7.98,.81l-.04,.02c-3.53,.02-7.06,0-10.58,.07"/>
  <path class="cls-17" d="M312.16,456.55c-1.48,.05-2.97,.16-4.45,.13-14.62-.35-29.25-.12-43.87,0-1.62,.01-3.26-.03-4.8,.61-2.31,.83-3.69-1.53-5.72-1.66,1.09-.49,2.21-.69,3.4-.5,1.73,1.1,3.68,.76,5.55,.76,14.63,.01,29.27-.03,43.9,0,2.01,0,4.08-.22,6.01,.67Z"/>
  <path class="cls-17" d="M218.09,455.12c10.06-.19,20.12-.5,30.16,.51-10.06,.23-20.12,.42-30.16-.51Z"/>
  <path class="cls-71" d="M421.72,459.67c-5.41,.01-10.83,.02-16.24,.03,5.41-1.08,10.82-1.02,16.24-.03Z"/>
  <path class="cls-71" d="M359.59,460.66c-2.17,.25-4.33,.18-6.5-.1,1.1-.49,2.18-1.05,3.31-1.46,1.54-.56,2.61,.05,3.18,1.55Z"/>
  <path class="cls-71" d="M303.87,458.13c1.24,.26,2.66-.26,3.81,.79q-2.01,.71-3.85-.78s.04-.02,.04-.02Z"/>
  <path class="cls-71" d="M137.8,459.67c-2.69,0-5.37,0-8.06,0,2.69-.92,5.37-.91,8.06,0Z"/>
  <path class="cls-71" d="M114.89,459.71c-1.87,0-3.73,0-5.6,0,1.87-.87,3.73-.86,5.6,0Z"/>
  <path class="cls-10" d="M449.68,342.94c2.62-1.66,5.69-1.97,8.52-2.98-2.68,1.51-5.41,2.89-8.57,2.92l.05,.06Z"/>
  <path class="cls-10" d="M469.92,338.63c.28-.24,.54-.54,.85-.72,.27-.15,.67-.55,.9,.03,.05,.13-.22,.47-.42,.58-.32,.19-.7,.28-1.06,.41,0,0-.27-.3-.27-.3Z"/>
  <path class="cls-10" d="M447.09,343.68c.71-.79,1.67-.71,2.59-.75,0,0-.05-.06-.05-.06-.66,.96-1.67,.72-2.6,.74,0,0,.05,.06,.05,.06Z"/>
</svg>